<svg width="50" height="51" viewBox="0 0 50 51" fill="none" xmlns="http://www.w3.org/2000/svg">
<g id="home-cleaning-icon-v3 (1) 1">
<path id="Layer" fill-rule="evenodd" clip-rule="evenodd" d="M32.6364 8.61363C32.5152 8.55302 32.4546 8.43181 32.4546 8.24999C32.394 8.06818 32.4243 7.91666 32.5455 7.79545C32.6667 7.67424 32.8182 7.61363 33 7.61363C33.9091 7.61363 35.0909 7.24999 35.1818 6.79545C35.3637 5.61363 35.5455 4.3409 35.5455 4.3409C35.8182 3.52272 36.6364 3.70454 36.7273 4.3409C36.7273 4.3409 36.9091 5.61363 37.0909 6.79545C37.1515 7.21969 37.8788 7.49242 39.2728 7.61363C40 7.52272 40.0909 8.70454 39.2728 8.79545C38.4546 8.79545 37.1818 9.15909 37.0909 9.61363C36.9091 10.7954 36.7273 12.0682 36.7273 12.0682C36.6364 12.7045 35.6364 12.7954 35.5455 12.0682C35.5455 12.0682 35.3637 10.7954 35.1818 9.61363C35.1212 9.12878 34.394 8.85605 33 8.79545C32.8788 8.79545 32.7576 8.73484 32.6364 8.61363ZM36 7.70454C35.9394 7.76515 35.8788 7.82575 35.8182 7.88636C35.7576 7.94696 35.697 8.00757 35.6364 8.06818C35.5758 8.06818 35.5152 8.09848 35.4546 8.15909C35.5152 8.21969 35.5758 8.24999 35.6364 8.24999C35.697 8.3106 35.7576 8.37121 35.8182 8.43181C35.8788 8.49242 35.9394 8.55302 36 8.61363C36.0606 8.67424 36.1212 8.73484 36.1818 8.79545C36.1818 8.73484 36.2122 8.67424 36.2728 8.61363C36.3334 8.55302 36.394 8.52272 36.4546 8.52272C36.5152 8.46212 36.5758 8.40151 36.6364 8.3409C36.697 8.2803 36.7576 8.24999 36.8182 8.24999C36.7576 8.18939 36.697 8.12878 36.6364 8.06818C36.5758 8.00757 36.5152 7.94696 36.4546 7.88636C36.394 7.88636 36.3334 7.82575 36.2728 7.70454C36.2122 7.64393 36.1515 7.58333 36.0909 7.52272C36.0909 7.58333 36.0606 7.64393 36 7.70454ZM38.7273 16.4318C38.6061 16.3106 38.5758 16.1894 38.6364 16.0682C38.6364 15.947 38.697 15.8258 38.8182 15.7045C38.9394 15.6439 39.0606 15.6136 39.1818 15.6136C39.8182 15.5227 40.1818 15.3409 40.2728 15.25C40.6364 14.9773 40.8182 14.0682 40.9091 13.4318C40.9091 13.25 40.9697 13.1288 41.0909 13.0682C41.2122 12.947 41.3637 12.8864 41.5455 12.8864C41.6667 12.8864 41.7879 12.947 41.9091 13.0682C42.0303 13.1288 42.0909 13.25 42.0909 13.4318C42.1818 14.0682 42.4546 15.0682 42.7273 15.25C42.8485 15.3106 42.9394 15.3409 43 15.3409C43.0606 15.4015 43.1515 15.4621 43.2728 15.5227C43.394 15.5227 43.4849 15.5227 43.5455 15.5227C43.6667 15.5833 43.7576 15.6136 43.8182 15.6136C44.4546 15.6136 44.5455 16.5227 44 16.7045C44 16.7045 42.9091 17.0682 42.6364 17.4318C42.4546 17.7045 42.0909 19.3409 42.0909 19.5227C42.0303 19.6439 41.9697 19.7348 41.9091 19.7954C41.7879 19.9167 41.6667 19.9773 41.5455 19.9773C41.3637 19.9773 41.2425 19.9167 41.1818 19.7954C41.0606 19.7348 40.9697 19.6439 40.9091 19.5227C40.9091 19.3409 40.6364 17.7045 40.3637 17.4318C40 17.0682 39 16.7045 39 16.7045C38.8788 16.6439 38.7879 16.553 38.7273 16.4318ZM41.3637 15.7954C41.3031 15.8561 41.2425 15.9167 41.1818 15.9773C41.1212 16.0379 41.0606 16.0985 41 16.1591C40.9394 16.2197 40.8788 16.25 40.8182 16.25C40.8788 16.3106 40.9394 16.3712 41 16.4318C41.0606 16.4924 41.1212 16.553 41.1818 16.6136C41.2425 16.6742 41.3031 16.7651 41.3637 16.8864C41.4243 16.947 41.4849 17.0076 41.5455 17.0682C41.5455 17.0076 41.5758 16.947 41.6364 16.8864C41.697 16.7651 41.7576 16.6742 41.8182 16.6136C41.8788 16.553 41.9394 16.4924 42 16.4318C42.0606 16.3712 42.1212 16.3106 42.1818 16.25C42.1212 16.1894 42.0606 16.1591 42 16.1591C41.9394 16.0985 41.8788 16.0379 41.8182 15.9773C41.7576 15.9167 41.697 15.8561 41.6364 15.7954C41.5758 15.6742 41.5455 15.5833 41.5455 15.5227C41.4849 15.5833 41.4243 15.6742 41.3637 15.7954ZM4.18185 11.0682C4.06063 10.947 4.00003 10.7954 4.00003 10.6136C4.00003 10.4924 4.06063 10.3712 4.18185 10.25C4.24245 10.1288 4.36366 10.0379 4.54548 9.97727C5.45457 9.97727 7.09094 9.61363 7.18185 8.88636C7.36366 7.43181 7.54548 5.88636 7.54548 5.88636C7.60609 5.70454 7.66669 5.58333 7.7273 5.52272C7.84851 5.40151 8.00003 5.3409 8.18185 5.3409C8.30306 5.3409 8.42427 5.40151 8.54548 5.52272C8.66669 5.58333 8.7273 5.70454 8.7273 5.88636C8.7273 5.88636 8.90912 7.24999 9.18185 8.88636C9.27276 9.79545 10.9091 9.88636 11.7273 9.97727C11.9091 9.97727 12.0606 10.0379 12.1818 10.1591C12.2425 10.2803 12.2728 10.4015 12.2728 10.5227C12.2728 10.7045 12.2425 10.8561 12.1818 10.9773C12.0606 11.0985 11.9091 11.1591 11.7273 11.1591C11 11.1591 9.27276 11.5227 9.18185 12.25C8.90912 13.7045 8.7273 15.3409 8.7273 15.3409C8.7273 15.4621 8.66669 15.5833 8.54548 15.7045C8.42427 15.7651 8.30306 15.7954 8.18185 15.7954C8.00003 15.7954 7.84851 15.7651 7.7273 15.7045C7.66669 15.5833 7.60609 15.4621 7.54548 15.3409C7.54548 15.3409 7.36366 13.7045 7.18185 12.25C7.00003 11.3409 5.18185 11.25 4.63639 11.1591C4.45457 11.1591 4.30306 11.1288 4.18185 11.0682ZM7.90912 9.88636C7.84851 10.0076 7.78791 10.0985 7.7273 10.1591C7.60609 10.2197 7.51518 10.2803 7.45457 10.3409C7.33336 10.4015 7.21215 10.4621 7.09094 10.5227C7.21215 10.5833 7.33336 10.6439 7.45457 10.7045C7.51518 10.8258 7.60609 10.9167 7.7273 10.9773C7.78791 11.0379 7.87882 11.1288 8.00003 11.25C8.06063 11.3712 8.12124 11.4924 8.18185 11.6136C8.24245 11.4924 8.30306 11.3712 8.36366 11.25C8.42427 11.1894 8.51518 11.0985 8.63639 10.9773C8.697 10.9167 8.78791 10.8561 8.90912 10.7954C8.96973 10.7348 9.06063 10.6742 9.18185 10.6136C9.06063 10.553 8.96973 10.4924 8.90912 10.4318C8.78791 10.3712 8.66669 10.2803 8.54548 10.1591C8.48488 10.0985 8.42427 10.0076 8.36366 9.88636C8.24245 9.82575 8.18185 9.73484 8.18185 9.61363C8.12124 9.73484 8.03033 9.82575 7.90912 9.88636ZM8.27276 38.1591C8.27276 38.1591 7.18185 38.4318 6.90912 38.7954C6.7273 39.0682 6.45457 40.0682 6.36366 40.5227C6.36366 40.6439 6.33336 40.7651 6.27276 40.8864C6.27276 41.0076 6.21215 41.1288 6.09094 41.25C5.96972 41.3106 5.84851 41.3409 5.7273 41.3409C5.60609 41.3409 5.48488 41.3106 5.36366 41.25C5.24245 41.1288 5.18185 41.0076 5.18185 40.8864C5.18185 40.8864 5.18185 40.8561 5.18185 40.7954C5.18185 40.7954 5.15154 40.7651 5.09094 40.7045C5.09094 40.7045 5.09094 40.6742 5.09094 40.6136C5.09094 40.6136 5.09094 40.5833 5.09094 40.5227C5.00003 40.0682 4.7273 39.0682 4.54548 38.7954C4.27276 38.4318 3.18185 38.1591 3.18185 38.1591C2.45457 37.6136 3.00003 36.9773 3.36366 36.9773C4.18185 36.8864 4.45457 36.6136 4.45457 36.6136C4.81821 36.4318 5.09094 35.4318 5.18185 34.7954C5.18185 34.6742 5.24245 34.553 5.36366 34.4318C5.48488 34.3106 5.60609 34.25 5.7273 34.25C5.90912 34.25 6.03033 34.3106 6.09094 34.4318C6.21215 34.553 6.30306 34.6742 6.36366 34.7954C6.36366 35.4318 6.63639 36.4318 7.00003 36.6136C7.06063 36.6742 7.15154 36.7348 7.27276 36.7954C7.33336 36.8561 7.42427 36.8864 7.54548 36.8864C7.60609 36.947 7.697 36.9773 7.81821 36.9773C7.87882 36.9773 7.96972 36.9773 8.09094 36.9773C8.7273 36.9773 8.81821 37.9773 8.27276 38.1591ZM5.90912 38.25C5.90912 38.1894 5.93942 38.1288 6.00003 38.0682C6.06063 38.0076 6.12124 37.947 6.18185 37.8864C6.30306 37.8258 6.39397 37.7651 6.45457 37.7045C6.39397 37.6439 6.30306 37.5833 6.18185 37.5227C6.12124 37.4621 6.06063 37.4015 6.00003 37.3409C5.93942 37.2803 5.90912 37.2197 5.90912 37.1591C5.84851 37.0985 5.78791 37.0379 5.7273 36.9773C5.66669 37.0379 5.63639 37.0985 5.63639 37.1591C5.57579 37.2197 5.51518 37.2803 5.45457 37.3409C5.39397 37.4015 5.33336 37.4621 5.27276 37.5227C5.21215 37.5833 5.12124 37.6439 5.00003 37.7045C5.12124 37.7651 5.21215 37.8258 5.27276 37.8864C5.33336 37.947 5.39397 38.0076 5.45457 38.0682C5.51518 38.1288 5.57579 38.1894 5.63639 38.25C5.63639 38.3712 5.66669 38.4621 5.7273 38.5227C5.78791 38.4621 5.84851 38.3712 5.90912 38.25ZM46.2728 26.1591C46.3334 26.5227 46.3031 26.8864 46.1818 27.25C46.0606 27.553 45.8485 27.7954 45.5455 27.9773C45.3031 28.2197 45 28.3409 44.6364 28.3409H42.0909V46.6136C42.0909 46.7348 42.0909 46.8257 42.0909 46.8864C42.0303 46.947 41.9697 47.0076 41.9091 47.0682C41.8485 47.1288 41.7879 47.1591 41.7273 47.1591C41.6667 47.2197 41.6061 47.25 41.5455 47.25H10.7273C10.6667 47.25 10.6061 47.2197 10.5455 47.1591C10.4243 47.1591 10.3334 47.1288 10.2728 47.0682C10.2728 47.0076 10.2425 46.947 10.1818 46.8864C10.1818 46.8257 10.1818 46.7348 10.1818 46.6136V28.3409H7.63639C5.45457 28.1591 5.81821 25.8864 6.54548 25.3409L10.3637 22.0682V14.4318C10.3637 14.3106 10.394 14.2197 10.4546 14.1591C10.4546 14.0985 10.4849 14.0379 10.5455 13.9773C10.6061 13.9167 10.6667 13.8864 10.7273 13.8864C10.8485 13.8258 10.9394 13.7954 11 13.7954H17.0909C17.1515 13.7954 17.2121 13.8258 17.2728 13.8864C17.3334 13.8864 17.394 13.9167 17.4546 13.9773C17.5152 14.0379 17.5758 14.0985 17.6364 14.1591C17.6364 14.2197 17.6364 14.3106 17.6364 14.4318V15.8864L23.6364 10.8864C23.9394 10.5833 24.3334 10.3409 24.8182 10.1591C25.2425 10.0379 25.6667 9.97727 26.0909 9.97727C26.5758 9.97727 27.0303 10.0379 27.4546 10.1591C27.8788 10.3409 28.2728 10.5833 28.6364 10.8864L32.1818 13.8864C32.2425 13.7651 32.2728 13.6439 32.2728 13.5227C32.2728 13.4015 32.3031 13.2803 32.3637 13.1591C32.3637 13.0379 32.3637 12.9167 32.3637 12.7954C32.3637 12.6742 32.394 12.553 32.4546 12.4318C32.4546 12.3712 32.4546 12.3106 32.4546 12.25C32.5152 12.1894 32.5758 12.1288 32.6364 12.0682C32.697 12.0076 32.7576 11.9773 32.8182 11.9773C32.8788 11.9167 32.9394 11.8864 33 11.8864C33.0606 11.8864 33.1212 11.9167 33.1818 11.9773C33.3031 11.9773 33.3637 12.0076 33.3637 12.0682C33.4243 12.1288 33.4849 12.1894 33.5455 12.25C33.5455 12.3106 33.5455 12.3712 33.5455 12.4318C33.7273 13.25 33.8182 14.8864 34.7273 15.8864C35.1818 16.5227 35.8182 16.7954 37 16.8864C37.1212 16.8864 37.2425 16.947 37.3637 17.0682C37.4243 17.1288 37.4849 17.25 37.5455 17.4318C37.5455 17.553 37.5152 17.6742 37.4546 17.7954C37.3334 17.9167 37.2121 17.9773 37.0909 17.9773L45.7273 25.3409C45.9697 25.5833 46.1515 25.8561 46.2728 26.1591ZM41 27.1591L34 21.25C33.9091 21.7954 33.6364 23.25 33.5455 23.4318C33.5455 24.0682 32.4546 24.0682 32.4546 23.4318C32.4546 23.25 31.8182 19.9773 31.2728 19.4318C30.7273 18.6136 29.3637 18.25 28.8182 17.9773C28.1818 17.6136 28.6364 16.9773 28.9091 16.8864L26.7273 15.0682C26.6667 15.0076 26.5758 14.947 26.4546 14.8864C26.3334 14.8258 26.2122 14.7954 26.0909 14.7954C25.9697 14.7954 25.8788 14.8258 25.8182 14.8864C25.697 14.947 25.5758 15.0076 25.4546 15.0682L11.2728 27.1591H41ZM24.7273 14.1591C24.9091 13.9773 25.1212 13.8561 25.3637 13.7954C25.6061 13.6742 25.8485 13.6136 26.0909 13.6136C26.3334 13.6136 26.5758 13.6742 26.8182 13.7954C27.0606 13.8561 27.2728 13.9773 27.4546 14.1591L30.3637 16.6136C30.7273 16.4318 31.5455 15.9773 31.7273 15.0682L27.8182 11.7954C27.1818 11.25 25.9091 10.6136 24.2728 11.7954L7.27276 26.25C7.15154 26.3106 7.09094 26.4015 7.09094 26.5227C7.03033 26.5833 7.03033 26.6742 7.09094 26.7954C7.15154 26.9167 7.21215 27.0076 7.27276 27.0682C7.39397 27.1288 7.48488 27.1591 7.54548 27.1591H9.36366L24.7273 14.1591ZM11.5455 21.0682L16.4546 16.8864V14.9773H11.5455V21.0682ZM40.9091 28.3409H11.3637V46.0682H15V37.8864C15 36.7045 15.4546 35.5227 16.2728 34.7045C17.0909 33.8864 18.1818 33.4318 19.3637 33.4318C20.5455 33.4318 21.7273 33.8864 22.5455 34.7045C23.3637 35.5227 23.8182 36.7045 23.8182 37.8864V46.0682H40.9091V28.3409ZM22.6364 37.8864C22.6364 36.9773 22.3637 36.1591 21.7273 35.6136C21.0909 34.9773 20.2728 34.6136 19.3637 34.6136C18.5455 34.6136 17.7273 34.9773 17.0909 35.6136C16.4546 36.1591 16.0909 36.9773 16.1818 37.8864V46.0682H22.6364V37.8864ZM30.9091 17.7045C31.5455 18.0682 32.5455 18.5227 33 20.5227C33.5455 18.25 34.3637 18.1591 35.0909 17.7045C33.5455 16.8864 33.3637 16.0682 33 15.3409C32.5455 16.8864 31.4546 17.4318 30.9091 17.7045ZM45 26.25L35.9091 18.6136C35.4546 18.7954 34.6364 19.25 34.3637 20.0682L42.8182 27.1591H44.6364C45.1818 27.1591 45.3637 26.5227 45 26.25Z" fill="#FB5994"/>
</g>
</svg>
