<svg width="52" height="51" viewBox="0 0 52 51" fill="none" xmlns="http://www.w3.org/2000/svg">
<g id="Group 56">
<path id="Vector" d="M22.0943 3.16526C21.4473 3.01609 20.8558 2.68691 20.388 2.21576C19.9202 1.7446 19.5952 1.1507 19.4507 0.502685C19.4347 0.449011 19.4023 0.401741 19.3579 0.367597C19.3135 0.333453 19.2595 0.314173 19.2035 0.3125C19.1483 0.313134 19.0949 0.332199 19.0519 0.366662C19.0088 0.401125 18.9785 0.449006 18.9657 0.502685C18.8086 1.15617 18.4728 1.75307 17.9959 2.22665C17.519 2.70022 16.9197 3.03179 16.2651 3.18428C16.2148 3.2018 16.1711 3.23456 16.1403 3.27801C16.1094 3.32146 16.0928 3.37345 16.0928 3.42676C16.0928 3.48007 16.1094 3.53206 16.1403 3.57551C16.1711 3.61897 16.2148 3.65173 16.2651 3.66925C16.9206 3.82865 17.5198 4.16468 17.9976 4.64082C18.4754 5.11696 18.8136 5.71498 18.9753 6.36986C18.9898 6.42177 19.0209 6.46752 19.0638 6.50014C19.1067 6.53276 19.1591 6.55045 19.213 6.55053C19.2678 6.54953 19.3209 6.53163 19.3652 6.4993C19.4094 6.46696 19.4426 6.42176 19.4602 6.36986C19.6095 5.71792 19.935 5.1195 20.4012 4.63991C20.8674 4.16032 21.4563 3.81797 22.1038 3.65023C22.1565 3.63389 22.2025 3.60102 22.235 3.55649C22.2676 3.51196 22.2849 3.45814 22.2845 3.40299C22.2838 3.34783 22.2648 3.29446 22.2303 3.25138C22.1958 3.2083 22.148 3.17799 22.0943 3.16526Z" fill="#FB5994"/>
<path id="Vector_2" d="M11.8245 47.9442C11.3592 47.8413 10.9331 47.6076 10.5961 47.2707C10.2592 46.9337 10.0255 46.5076 9.92264 46.0423C9.91367 46.0046 9.89145 45.9714 9.86003 45.9487C9.82861 45.926 9.79009 45.9154 9.75148 45.9187C9.71323 45.9172 9.67559 45.9286 9.64456 45.951C9.61354 45.9734 9.59091 46.0055 9.58031 46.0423C9.47218 46.5051 9.23679 46.9285 8.90071 47.2646C8.56464 47.6006 8.14129 47.836 7.67847 47.9442C7.63993 47.9529 7.60561 47.9748 7.58134 48.006C7.55708 48.0372 7.54436 48.0758 7.54534 48.1153C7.54436 48.1548 7.55708 48.1935 7.58134 48.2247C7.60561 48.2559 7.63993 48.2777 7.67847 48.2865C8.13847 48.4005 8.55864 48.6379 8.89376 48.973C9.22888 49.3081 9.46625 49.7283 9.58031 50.1883C9.58929 50.226 9.61151 50.2592 9.64292 50.2819C9.67434 50.3046 9.71287 50.3153 9.75148 50.3119C9.78937 50.3119 9.82628 50.2999 9.857 50.2777C9.88771 50.2556 9.91068 50.2243 9.92264 50.1883C10.0318 49.726 10.2675 49.3032 10.6034 48.9673C10.9393 48.6314 11.3621 48.3956 11.8245 48.2865C11.8615 48.2749 11.894 48.2523 11.9178 48.2217C11.9416 48.1911 11.9555 48.154 11.9576 48.1153C11.9586 48.0758 11.9459 48.0372 11.9216 48.006C11.8973 47.9748 11.863 47.9529 11.8245 47.9442Z" fill="#FB5994"/>
<path id="Vector_3" d="M51.5633 37.0941C50.6666 36.8862 49.8466 36.4298 49.1974 35.7772C48.5481 35.1246 48.096 34.3023 47.8928 33.4045C47.8767 33.3437 47.8409 33.2899 47.791 33.2515C47.7411 33.2131 47.6799 33.1923 47.617 33.1923C47.5541 33.1923 47.4929 33.2131 47.443 33.2515C47.3931 33.2899 47.3573 33.3437 47.3412 33.4045C47.1247 34.309 46.6603 35.1352 46.0001 35.7903C45.34 36.4454 44.5102 36.9035 43.6041 37.1131C43.5438 37.1298 43.4907 37.1658 43.4529 37.2156C43.4151 37.2654 43.3947 37.3263 43.3949 37.3888C43.3942 37.4526 43.4142 37.5149 43.452 37.5664C43.4897 37.6178 43.5431 37.6556 43.6041 37.6741C44.5109 37.8944 45.3398 38.3594 46.0004 39.0184C46.6611 39.6773 47.1282 40.505 47.3507 41.4112C47.3674 41.4715 47.4034 41.5246 47.4533 41.5624C47.5031 41.6002 47.564 41.6206 47.6265 41.6204C47.6915 41.6205 47.7547 41.5992 47.8063 41.5596C47.8579 41.52 47.895 41.4645 47.9118 41.4017C48.1177 40.5011 48.5672 39.6744 49.2112 39.012C49.8552 38.3495 50.6689 37.8769 51.5633 37.6456C51.6262 37.6323 51.6825 37.5975 51.7224 37.5471C51.7623 37.4968 51.7834 37.4341 51.782 37.3698C51.7786 37.3069 51.7558 37.2465 51.7166 37.1971C51.6774 37.1477 51.6239 37.1117 51.5633 37.0941Z" fill="#FB5994"/>
<path id="Vector_4" d="M44.7453 22.6401C44.3269 20.6242 42.1112 19.7018 40.1619 19.1978C41.4208 17.574 42.8453 16.0857 44.4125 14.757L44.6787 14.5383L44.5836 14.1959C43.1382 7.4444 36.8431 3.81189 36.5769 3.65974L36.187 3.43152L35.8827 3.77385C33.5366 6.38078 30.9933 8.80327 28.2753 11.0199C27.3224 11.7008 26.3249 12.3171 25.2895 12.8646C24.833 13.1214 24.3385 13.3686 23.9201 13.6444C22.9692 13.1119 22.0753 12.4938 21.0674 11.8472C17.5014 9.5079 13.8118 7.09256 11.3585 8.04348C8.63884 9.099 7.32657 12.8837 6.28056 15.9171C5.94774 16.868 5.64344 17.7524 5.32964 18.38C4.94927 19.1788 4.42626 20.0821 3.87473 21.0426C1.60203 24.9699 -1.50748 30.3616 0.860312 36.514C3.2281 42.6665 11.8244 43.5508 18.148 44.283C19.9263 44.4922 21.4668 44.6729 22.5698 44.9297C24.5887 45.5093 26.5422 46.2964 28.399 47.2784C30.5576 48.3149 32.5164 49.2563 34.0094 49.2563C34.3193 49.2712 34.6289 49.2233 34.9198 49.1155C35.2107 49.0076 35.4768 48.842 35.702 48.6287C36.9477 47.4116 37.2901 45.1674 37.6895 42.5714C37.9298 40.5887 38.3825 38.6377 39.0398 36.7518C39.7633 35.0602 40.5726 33.4066 41.4646 31.7975C43.376 28.203 45.1732 24.7987 44.7453 22.6401ZM25.8315 13.8631C26.911 13.3023 27.95 12.6668 28.941 11.9613C31.6089 9.81385 34.1019 7.45765 36.3962 4.91495C37.7275 5.78029 42.1017 8.9944 43.395 14.1199C41.7332 15.5562 40.2402 17.1768 38.9447 18.9505V18.9981C38.745 19.2929 38.5548 19.5876 38.3836 19.8824L38.2695 20.0726C37.5195 21.5503 37.0947 23.1716 37.0238 24.8272C37.0108 25.8839 36.7502 26.9229 36.2631 27.8607C34.7652 30.4915 33.6114 33.3039 32.8303 36.2287C32.7606 36.4116 32.6536 36.5779 32.5161 36.7171C32.3785 36.8563 32.2135 36.9652 32.0315 37.037C31.8318 37.1109 31.6168 37.1339 31.406 37.104C31.1952 37.0742 30.9951 36.9923 30.8238 36.8659C29.5686 36.0481 29.9299 33.1288 31.7747 29.0588L32.3833 27.5088L30.9379 28.222C27.7809 29.791 24.2815 33.3094 21.9422 35.9815L21.7615 36.1907C20.9761 37.1404 20.0862 37.9985 19.1085 38.7487C18.752 39.025 18.3288 39.2022 17.8818 39.2622C17.7721 39.2706 17.6619 39.2555 17.5585 39.2177C17.4552 39.18 17.3612 39.1206 17.2827 39.0435C17.2006 38.9824 17.1332 38.9038 17.0855 38.8133C17.0377 38.7228 17.0109 38.6227 17.0069 38.5205C17.0069 37.2748 19.5269 34.4886 23.7204 30.0478L22.9217 29.2395C22.5508 29.5723 22.1799 29.9337 21.8091 30.295L21.714 30.3996C21.5048 30.6088 21.2956 30.818 21.0959 31.0367C20.2591 31.9116 19.4508 32.8149 18.7091 33.6518C16.4554 36.1907 14.1257 38.8057 13.0891 37.9404C13.0154 37.8843 12.955 37.8126 12.9122 37.7304C12.8695 37.6482 12.8455 37.5575 12.8419 37.4649C12.7753 36.2002 15.1907 33.6613 17.5299 31.1984C18.1005 30.5898 18.6901 29.9717 19.2606 29.3536C19.9833 28.5738 20.687 27.7846 21.3526 26.9858L20.5158 26.2156C19.7171 27.0048 18.9849 27.7656 18.2717 28.4883C17.2352 29.5533 16.2842 30.5232 15.4189 31.341C14.933 31.8069 14.4185 32.242 13.8784 32.6438C13.7974 32.7103 13.7116 32.7707 13.6217 32.8245C12.8039 33.3665 12.3569 33.395 12.1002 33.2999C11.9982 33.262 11.9068 33.2 11.8339 33.1192C11.789 33.0767 11.7538 33.0249 11.7308 32.9674C11.7079 32.91 11.6976 32.8482 11.7008 32.7864C11.8562 32.0142 12.2328 31.3039 12.7849 30.7419C13.9937 29.3313 15.2827 27.9915 16.6456 26.7291C17.4824 25.9113 18.2812 25.1505 18.9563 24.4278L18.1766 23.7051C17.587 24.1901 16.9499 24.8082 16.2747 25.4643C15.0671 26.6435 13.6217 28.0508 12.6042 28.3932C12.4725 28.4389 12.3346 28.4646 12.1953 28.4692C12.1057 28.4703 12.0169 28.4522 11.9349 28.4161C11.8529 28.3801 11.7795 28.3268 11.7198 28.26C11.0922 27.5849 13.1938 25.4073 15.4189 23.1156C16.2082 22.2883 17.083 21.3849 17.9769 20.4149C18.2812 20.0916 18.576 19.7588 18.8803 19.4165L19.2511 19.0076L19.3272 18.922C19.4413 18.7889 19.5649 18.6653 19.679 18.5511L19.7361 18.4846L20.0214 18.1898L20.1165 18.0947L20.4112 17.7999L20.5634 17.6573L20.706 17.5242C22.2395 16.0757 23.964 14.8439 25.8315 13.8631ZM40.4566 31.3125C39.5405 32.9603 38.7121 34.6553 37.9747 36.3904C37.293 38.3568 36.8244 40.3908 36.5769 42.4573C36.2155 44.8536 35.8922 46.9171 34.9223 47.868C33.9523 48.8189 31.537 47.5637 28.9125 46.299C26.9882 45.2733 24.9651 44.445 22.8741 43.8266C21.3718 43.5244 19.8546 43.3022 18.3287 43.161C12.2999 42.4573 4.06491 41.4968 1.97289 36.1146C-0.195209 30.4662 2.63853 25.5594 4.91123 21.6226C5.47228 20.6717 6.00479 19.7208 6.40418 18.884C6.76406 18.0382 7.08143 17.1749 7.3551 16.2975C8.30602 13.4923 9.54221 9.98336 11.7674 9.11802C12.0289 9.02067 12.3061 8.97232 12.5852 8.97538C14.6011 8.97538 17.6821 10.9913 20.4398 12.7791C21.2671 13.3211 22.0563 13.8346 22.8171 14.3005L22.5888 14.4527L22.4272 14.5668L22.3606 14.6143L22.1895 14.738H22.1324L21.9517 14.8711C21.7425 15.0232 21.5238 15.1849 21.3051 15.3656L21.153 15.4892L21.0388 15.5843L20.9057 15.6984L20.7536 15.8315L20.649 15.9171C20.4588 16.0756 20.2686 16.2467 20.0784 16.4306V16.4781L19.8217 16.7159L19.7646 16.7729L19.4793 17.0487L19.156 17.3815L18.8422 17.7048L18.7661 17.7904L18.5189 18.0567L18.4333 18.1518L18.11 18.5226C16.9214 19.8634 15.7327 21.0901 14.6867 22.1742C13.4037 23.4076 12.2268 24.7468 11.1683 26.1775C10.4456 27.2806 10.2839 28.1649 10.9781 28.8972C11.2424 29.1892 11.5976 29.3836 11.9861 29.4487H12.433C11.7385 30.187 11.1871 31.048 10.8069 31.9876C10.7306 32.2179 10.6889 32.4583 10.6833 32.7008C10.6786 32.9165 10.7183 33.1308 10.8001 33.3305C10.8819 33.5301 11.004 33.7107 11.1588 33.861C11.4401 34.1347 11.7968 34.3181 12.1832 34.3876C12.5695 34.4571 12.9678 34.4094 13.3269 34.2508C13.0891 34.5646 12.8799 34.8594 12.6898 35.1447C12.1861 35.8024 11.8972 36.5992 11.8625 37.4269C11.8426 37.6893 11.8818 37.9528 11.9773 38.198C12.0727 38.4432 12.222 38.6639 12.414 38.8438C12.4632 38.8881 12.5174 38.9264 12.5757 38.9579C12.5937 38.9789 12.6165 38.9952 12.6422 39.0054H12.7183C13.0845 39.2224 13.5166 39.3001 13.9355 39.2241H14.0115H14.0686C14.7349 39.0477 15.3526 38.7226 15.8753 38.2732L15.9419 38.2162C15.9419 38.2162 15.9419 38.3018 15.9419 38.3398C15.9419 38.3778 15.9419 38.3398 15.9419 38.3968V38.5775C15.954 38.8307 16.0167 39.0789 16.1261 39.3075C16.2355 39.5361 16.3895 39.7406 16.579 39.9088L16.7312 40.0324H16.7787L16.8928 40.1085H16.9404L17.0545 40.1751H17.1115L17.2352 40.2321H17.2827H17.4158H17.4634H17.5965H17.6631H17.7867H18.0244C18.6782 40.1548 19.3008 39.909 19.8312 39.5189L19.9168 39.4619L19.9928 39.4048L20.2876 39.1766C21.1317 38.5231 21.9205 37.8011 22.6459 37.018L22.703 36.9514L22.8266 36.8088C23.1214 36.476 23.4637 36.0956 23.8441 35.6962C25.4368 33.9405 27.177 32.3244 29.0456 30.8656C29.3689 30.6183 29.7017 30.3901 29.9965 30.1714C29.435 31.5004 29.0668 32.903 28.903 34.3364C28.7318 36.3238 29.3784 37.3223 30.1392 37.8168C30.4639 38.0432 30.8395 38.1859 31.2326 38.2323C31.6258 38.2788 32.0243 38.2275 32.3928 38.083C32.7537 37.9451 33.0779 37.7258 33.3401 37.4421C33.6024 37.1584 33.7956 36.818 33.9048 36.4475C34.6546 33.6563 35.757 30.9721 37.1855 28.4597C37.7852 27.3719 38.1115 26.1547 38.1364 24.9128C38.1905 23.4204 38.5668 21.9574 39.2395 20.6242L39.3536 20.4245C39.3913 20.3558 39.4326 20.2892 39.4772 20.2248C42.0161 20.8334 43.376 21.6987 43.6232 22.8873C43.975 24.6561 42.1017 28.1554 40.4566 31.3125Z" fill="#FB5994"/>
</g>
</svg>
