<?xml version="1.0" encoding="utf-8"?>
<!-- Generator: Adobe Illustrator 16.0.0, SVG Export Plug-In . SVG Version: 6.00 Build 0)  -->
<!DOCTYPE svg PUBLIC "-//W3C//DTD SVG 1.1//EN" "http://www.w3.org/Graphics/SVG/1.1/DTD/svg11.dtd">
<svg version="1.1" id="Fairest_Business" xmlns="http://www.w3.org/2000/svg" xmlns:xlink="http://www.w3.org/1999/xlink" x="0px"
	 y="0px" width="512px" height="512px" viewBox="0 0 512 512" enable-background="new 0 0 512 512" xml:space="preserve">
<circle id="Background_28_" fill="#F05161" cx="256" cy="256" r="256"/>
<path id="Shadow_29_" opacity="0.1" d="M511.983,257.283L346.927,97.899L342.75,113L211.5,133.051L169.25,96.5L169,135.08
	l-4.413,3.349L247,228L117.837,414.305l89.26,93.01C222.929,510.377,239.273,512,256,512
	C396.955,512,511.291,398.076,511.983,257.283z"/>
<g id="Fairest_Business_1_">
	<rect x="244.783" y="144.058" fill="#F1F2F2" width="22.434" height="57.689"/>
	<g>
		<g>
			<path fill="#01B9AD" d="M395.352,410.22c0.845,3.376-1.89,6.112-6.109,6.112c-88.827,0-177.655,0-266.481,0
				c-4.22,0-6.958-2.736-6.114-6.112c17.763-71.063,35.535-142.122,53.297-213.185c0.844-3.375,3.581-6.113,6.112-6.113
				c53.296,0,106.593,0,159.888,0c2.532,0,5.271,2.737,6.114,6.113C359.806,268.102,377.6,339.155,395.352,410.22z"/>
		</g>
		<circle fill="#00978D" cx="256" cy="303.628" r="96.912"/>
		<circle fill="#F1F2F2" cx="256" cy="303.628" r="86.215"/>
		<circle fill="#F1F2F2" cx="256" cy="303.628" r="86.215"/>
		<g>
			<rect x="254.09" y="220.085" fill="#3E3C5D" width="3.82" height="16.81"/>
			<rect x="254.09" y="370.358" fill="#3E3C5D" width="3.82" height="16.81"/>
		</g>
		<g>
			<rect x="322.731" y="301.716" fill="#3E3C5D" width="16.811" height="3.82"/>
			<rect x="172.459" y="301.716" fill="#3E3C5D" width="16.81" height="3.82"/>
		</g>
		<g>
			
				<rect x="307.219" y="348.35" transform="matrix(-0.7071 0.7071 -0.7071 -0.7071 779.9814 390.4329)" fill="#3E3C5D" width="3.82" height="16.811"/>
			
				<rect x="200.96" y="242.092" transform="matrix(0.7071 -0.7071 0.7071 0.7071 -117.7087 216.8201)" fill="#3E3C5D" width="3.821" height="16.81"/>
		</g>
		<g>
			
				<rect x="307.219" y="242.093" transform="matrix(0.7068 0.7074 -0.7074 0.7068 267.8491 -145.2368)" fill="#3E3C5D" width="3.82" height="16.809"/>
			
				<rect x="200.961" y="348.351" transform="matrix(-0.7071 -0.7071 0.7071 -0.7071 94.0577 752.4717)" fill="#3E3C5D" width="3.82" height="16.81"/>
		</g>
		<polygon fill="#F05161" points="257.498,309.229 251.342,300.171 306.142,269.909 		"/>
		<circle fill="#D64857" cx="256" cy="303.627" r="9.806"/>
		<circle fill="#F1F2F2" cx="374.862" cy="400.54" r="9.233"/>
	</g>
	<rect x="231.931" y="141.383" fill="#008B82" width="48.138" height="8.023"/>
	<path fill="#01B9AD" d="M342.215,95.667v7.362h-172.43v-7.361c-3.347,0.026-6.049,2.212-6.049,4.906v35.899
		c0,2.711,2.736,4.909,6.113,4.909h172.304c3.376,0,6.113-2.198,6.113-4.909v-35.899C348.266,97.881,345.562,95.695,342.215,95.667z
		"/>
	<path opacity="0.1" fill="#231F20" d="M395.352,410.22c-17.752-71.064-35.546-142.118-53.293-213.185
		c-0.844-3.375-3.582-6.113-6.114-6.113c-22.909,0-45.819,0-68.728,0v-41.517h12.853v-8.023h62.083c3.376,0,6.113-2.198,6.113-4.909
		v-35.899c0-2.694-2.704-4.88-6.051-4.907v7.362H254.09v313.303c45.051,0,90.101,0,135.152,0
		C393.462,416.332,396.196,413.596,395.352,410.22z"/>
</g>
</svg>
